Coordinates
version=1
nRows=10
nColumns=50
inDegrees=no

Units are S.I. units (second, meters, Newtons, ...)
If the header above contains a line with 'inDegrees', this indicates whether rotational values are in degrees (yes) or radians (no).

endheader
time	pelvis_tilt	pelvis_list	pelvis_rotation	pelvis_tx	pelvis_ty	pelvis_tz	hip_flexion_r	hip_adduction_r	hip_rotation_r	knee_angle_r	ankle_angle_r	subtalar_angle_r	mtp_angle_r	hip_flexion_l	hip_adduction_l	hip_rotation_l	knee_angle_l	ankle_angle_l	subtalar_angle_l	mtp_angle_l	lumbar_bending	lumbar_extension	lumbar_twist	thorax_bending	thorax_extension	thorax_twist	head_bending	head_extension	head_twist	scapula_abduction_r	scapula_elevation_r	scapula_upward_rot_r	shoulder_r_x	shoulder_r_y	shoulder_r_z	elbow_flexion_r	pro_sup_r	wrist_flexion_r	wrist_deviation_r	scapula_abduction_l	scapula_elevation_l	scapula_upward_rot_l	shoulder_l_x	shoulder_l_y	shoulder_l_z	elbow_flexion_l	pro_sup_l	wrist_flexion_l	wrist_deviation_l
11.4583	-0.0164927	0.0300598	-3.05511	1.66416	0.998275	-0.499475	0.0771755	-0.0720359	-0.145486	0.312387	0.270665	0.00947939	-0.0866239	0.124933	-0.0674826	0.0539511	0.287491	0.245527	-0.0620138	-0.0462242	6.32133	-0.357863	6.26813	0.0114071	0.49821	-6.29158	0.0227178	-0.212253	0.102213	-1.33032	0.0184232	6.1743	-0.446294	0.41707	-0.483606	0.6109	-0.514314	0.0442682	-0.169371	-1.37316	0.0800822	-0.126418	0.339539	-0.589114	-0.528171	-5.39229	-0.342407	0.0908206	-0.320036
11.4667	-0.0127153	0.0285176	-3.05607	1.66385	0.997148	-0.499561	0.0800859	-0.0745783	-0.145802	0.311306	0.270843	0.012396	-0.0861466	0.125965	-0.0666477	0.0506007	0.281809	0.24356	-0.0572488	-0.0497093	6.3205	-0.359452	6.269	0.0117241	0.50189	-6.29275	0.0198264	-0.206115	0.10214	-1.33164	0.0163537	6.16867	-0.45971	0.417649	-0.474088	0.622746	-0.507333	0.0510974	-0.167296	-1.3752	0.0775663	-0.134127	0.348728	-0.597555	-0.525584	-5.37474	-0.317535	0.093878	-0.324645
11.475	-0.0096488	0.0274986	-3.05693	1.66354	0.996009	-0.49958	0.0828302	-0.0766408	-0.146208	0.311342	0.272082	0.0156886	-0.0857673	0.126993	-0.0665175	0.046902	0.277725	0.242565	-0.0517011	-0.0528507	6.32004	-0.361344	6.26954	0.0124247	0.504426	-6.2938	0.0168421	-0.200403	0.103269	-1.33338	0.0139747	6.16369	-0.472738	0.418349	-0.464025	0.633981	-0.502996	0.0538395	-0.168696	-1.37748	0.0748147	-0.141403	0.358086	-0.606424	-0.521967	-5.35864	-0.294111	0.0941658	-0.33059
11.4833	-0.00762699	0.0270254	-3.05758	1.66325	0.994955	-0.499448	0.0849996	-0.0781109	-0.14662	0.312172	0.273569	0.0185635	-0.085572	0.127309	-0.0669155	0.0436631	0.274397	0.242427	-0.0469298	-0.0556962	6.32037	-0.363832	6.2699	0.0131682	0.505476	-6.29459	0.0128204	-0.194109	0.105527	-1.33511	0.0115284	6.15929	-0.485112	0.419847	-0.453141	0.644624	-0.49992	0.0552066	-0.171653	-1.37959	0.0718828	-0.148939	0.368591	-0.614668	-0.51706	-5.34234	-0.271306	0.094553	-0.334368
11.4917	-0.00598911	0.0266674	-3.05818	1.66295	0.993993	-0.499219	0.0872664	-0.0795028	-0.147407	0.313861	0.275135	0.0212936	-0.0854304	0.127484	-0.0672702	0.0404209	0.271568	0.24299	-0.0433411	-0.0584754	6.32076	-0.366234	6.2706	0.0141661	0.505621	-6.29522	0.00787603	-0.186783	0.10754	-1.33684	0.00906344	6.15362	-0.49906	0.42149	-0.441089	0.654511	-0.496729	0.0571008	-0.175563	-1.38147	0.0688791	-0.156682	0.380065	-0.622351	-0.510816	-5.32664	-0.250494	0.0955163	-0.336115
11.5	-0.00408448	0.0260252	-3.05853	1.66262	0.993132	-0.498997	0.0902665	-0.0812332	-0.148447	0.316548	0.276766	0.0234803	-0.0849684	0.12865	-0.0671933	0.0363934	0.270164	0.243988	-0.039825	-0.061186	6.32056	-0.367916	6.27175	0.0155129	0.50577	-6.29641	0.00259027	-0.180012	0.10894	-1.33879	0.00635102	6.14551	-0.516085	0.42102	-0.428145	0.663688	-0.493722	0.0605651	-0.181889	-1.38335	0.0657894	-0.164301	0.392072	-0.629455	-0.503691	-5.31368	-0.233199	0.0986901	-0.338641
11.5083	-0.00258856	0.0252019	-3.05846	1.66242	0.992459	-0.498842	0.0936553	-0.0829152	-0.148802	0.320575	0.278731	0.0236146	-0.0844386	0.130735	-0.0668278	0.0329535	0.271201	0.245195	-0.0364047	-0.0636013	6.32018	-0.370297	6.27317	0.0167801	0.506518	-6.29833	-0.00272067	-0.174668	0.11018	-1.34071	0.00327183	6.1368	-0.53356	0.417967	-0.415309	0.67122	-0.492335	0.0633476	-0.188284	-1.38531	0.0623914	-0.171767	0.404778	-0.635665	-0.495977	-5.30381	-0.217695	0.101385	-0.342334
11.5167	-0.00202588	0.0243918	-3.05797	1.66229	0.991959	-0.498686	0.0962738	-0.0841717	-0.148338	0.325032	0.281516	0.0218329	-0.0841576	0.132785	-0.0662619	0.03192	0.274063	0.246658	-0.0343155	-0.0656122	6.31985	-0.373902	6.27443	0.018047	0.507322	-6.30044	-0.00811126	-0.170155	0.111859	-1.3423	0.000497978	6.12997	-0.54852	0.413907	-0.403591	0.678207	-0.489933	0.0646655	-0.190378	-1.38715	0.0590994	-0.1785	0.41735	-0.640589	-0.487936	-5.29578	-0.2032	0.101717	-0.345208
11.525	-0.00192145	0.0236897	-3.05761	1.66197	0.99149	-0.498452	0.0979759	-0.0851435	-0.147529	0.329177	0.285461	0.0199065	-0.0839439	0.134268	-0.0654818	0.0326785	0.27737	0.248559	-0.0347011	-0.0670245	6.31971	-0.377307	6.2752	0.0193555	0.507303	-6.30192	-0.0139204	-0.166224	0.114908	-1.34328	-0.00116954	6.12515	-0.561125	0.408059	-0.392656	0.687061	-0.482816	0.0679399	-0.190237	-1.3883	0.056774	-0.183842	0.428914	-0.642949	-0.479651	-5.28889	-0.190083	0.103505	-0.346701
11.5333	-0.00155462	0.0232474	-3.0577	1.66145	0.990993	-0.498207	0.0999852	-0.0858783	-0.14617	0.333583	0.290422	0.0183129	-0.0837948	0.136156	-0.0646424	0.0339711	0.281527	0.251486	-0.0374865	-0.0678593	6.31996	-0.379679	6.27553	0.0205821	0.506813	-6.30264	-0.0202599	-0.16286	0.118385	-1.34375	-0.00195819	6.12177	-0.571629	0.399846	-0.382191	0.696023	-0.472712	0.070374	-0.190303	-1.38871	0.0552636	-0.18782	0.438925	-0.642661	-0.471466	-5.28409	-0.17886	0.105889	-0.347131
